<?xml version="1.0" encoding="UTF-8"?>
<svg id="Livello_1" data-name="Livello 1" xmlns="http://www.w3.org/2000/svg" viewBox="0 0 440.8 389.17">
  <defs>
    <style>
      .cls-1 {
        fill: #f69f17;
      }
    </style>
  </defs>
  <path class="cls-1" d="M158.52,332.19l-37.94-4.28c-14.37,14.89-11.21,34.65-37.77,31.29-14.72-1.87-64.01-23.07-78.49-30.85-3.72-2.01-6.44-5.11-2.14-8.01,1.62-1.1,22.34,1.93,28.3,1.43,5.36-.44,10.09-2.76,14.95-3.03,9.92-.56,30.81,1.95,38.62-.33,2.49-.73,4.61-3.95,5.86-6.13,2.74-4.84,12.08-32.06,9.55-35.59-12.65-2.41-26.2,1.97-39.87-.58-40.03-7.52,5.05-50.39,17.48-63.7l.33-2.06c-13.02-13.68-6.67-31.73-.02-46.93,4.26-9.72,12.44-18.46,12.23-28.94-4.48-4.44-38.23,25.77-43.15,9.45-5.59-18.54,18.04-54.94,23.73-73.05-.39-3.92-11.19-11.69-14.18-15.88-6.13-8.6-11.15-26.22-9.9-36.69.75-6.29,4.59-7.29,8.2-2.06,5.09,7.37,7.97,21.61,12.17,29.94,11.75,1.79,24.69-27.41,22.32-.04,4.13,5.94,18.62-12.23,21.53-16.01,6.44-8.41,11.27-17.98,16.05-27.37L131.07.01c2.97-.27,7.06,3.36,8.68,5.73,3.07,4.46,12.25,26.79,12.77,32.16,1.25,12.81-2.53,25.85-10.51,35.9-15.03,18.94-40.95,8.95-53.82,31.52,3.92,5.17,9.8,1.66,15.63,2.2,17.65,1.62,25.58,13.14,22.86,30.38-1.62,10.34-16.26,32.02-16.24,37.83.06,8.91,14.74,7.52,16.36,16.82,3.32,19.1-41.36,36.73-52.95,45.33-4.67,3.47-25.08,21.43-11.94,23.92,20.27,3.84,41.84-10.44,62.19-6.75,3.57,2.37,3.41,19.58,3.01,24.09-.58,6.35-9.16,35.88-4.63,38.97.79.54,16.51,3.45,18.81,3.65,2.55.23,15.39.23,17.57-.27,10.09-2.33,6.79-11.38,9.99-15.59,7.2-9.41,18.73,11.19,23.69,12.62,4.88,1.39,24.07-6.54,22.94,5.42-.71,7.66-17.42,6.15-21.72,12.87-3.92,12.75-12.31,56.06-31.19,52.1-2.97-.62-7.68-4.71-9.2-7.35-2.49-4.34-1.6-20.54-.79-26,1.06-7.02,7.89-15.01,5.9-23.32"/>
  <path class="cls-1" d="M258.06,188.53c-7.41-.96-26.1,2.6-30.19,8.72-3.95,5.92-3.16,26.39-4.84,35.05-1.16,6-6.54,25.79-10.59,29.3-13.62,11.79-32.52-.06-35.61-15.59-3.97-19.89-.33-42.34,1.45-62.25.81-8.93-4.26-27.74,9.99-25.31,14.06,2.41,22.05,20.51,29.4,22.11,13.21,2.89,54.38-12.21,64.91,3.47,4.82,7.16-10.09,34.03-15.34,41.19-4.24,5.77-23.75,25.95-30.71,23.9-4.24-2.66-5.13-6.23-3.84-10.8,2.3-8.16,30.54-44.6,25.37-49.79"/>
  <path class="cls-1" d="M280.36,316.16c5.69-1,12.35-1.02,16.71,3.26,8.66,8.49-3.86,11.92-4.86,18.23-1.43,9.14,9.61,23.21-.81,29.44-27.24,16.28-40.55-45.78-11.05-50.93"/>
  <path class="cls-1" d="M394.04,306.36c7.54-2.26,68.27,25.68,38.68,38.77-25.77,11.4-20.68-11.63-29.53-23.61-2.7-3.65-18.71-12.31-9.16-15.16"/>
  <path class="cls-1" d="M384.78,244.21c.64-17.73-20.91-1.66-27.16-.73-19,2.8-11.69-16.11-15.61-28.86,2.24-6.1,8.18-9.07,12.06-13.58,5.13-5.94,17.52-17.65,17.96-25.02.85-14.76-33.84-20.08-43.13-25.06-6.37-3.43-10.67-12.85-19.62-9.05-1.2.83-5.61,13.6-5.52,15.41.15,2.87,7.68,10.03,8.95,17.44,4.53,26.45-13.72,28.4-28.07,45.06-12.15,14.12-21.03,34.41-4.98,49.69,13.35,12.71,43.38,1,47.76,10.15,3.36,17.15,3.65,37.04,6.83,53.92,1.85,9.84,6.91,33.76,12.27,40.88,1.7,2.28,4.4,5.88,7.47,5.88,10.46-3.18,8.93-13.1,8.62-21.99-.98-27.49-13.48-56.58-9.2-84.96,7.14-7.27,30.96-16.49,31.42-29.17h-.04ZM318.94,248.43c-2.74,1.91-17.59.77-18.94-1.23-6.29-9.39,29.86-30.88,18.94,1.23Z"/>
</svg>