<?xml version="1.0" encoding="UTF-8"?>
<svg id="uuid-392223b6-7120-45ef-bcc7-23f498b93dd1" data-name="Livello 1" xmlns="http://www.w3.org/2000/svg" viewBox="0 0 506.05018 382">
  <path d="M289.25729,195.3022l-18.72655-2.10951c-7.0969,7.34716-5.53547,17.11048-18.64722,15.44507-7.27314-.92523-31.60741-11.38642-38.75367-15.23889-1.83987-.99219-3.17396-2.5219-1.0574-3.95643.79657-.53927,11.03571.94989,13.97001.71198,2.64172-.21501,4.98036-1.36405,7.3771-1.49975,4.89576-.27668,15.21775.964,19.06844-.16036,1.22658-.35776,2.27165-1.94914,2.8867-3.02945,1.357-2.38443,5.96373-15.82927,4.71599-17.57573-6.24746-1.1931-12.93373.97809-19.68524-.28726-19.76632-3.70618,2.49019-24.88236,8.63189-31.45056l.16038-1.01686c-6.42898-6.76033-3.29203-15.6636-.01234-23.16586,2.1007-4.80236,6.14528-9.11125,6.04304-14.29251-2.21701-2.19409-18.87281,12.72404-21.30306,4.6649-2.7598-9.15355,8.91212-27.12758,11.71422-36.07143-.19563-1.93503-5.5302-5.76985-7.0035-7.8406-3.02417-4.24897-5.50554-12.94962-4.88694-18.11324.37185-3.10522,2.26635-3.60222,4.04982-1.01863,2.51133,3.63744,3.93177,10.67623,6.01133,14.78244,5.80688.87939,12.18474-13.52942,11.01984-.02469,2.03727,2.93607,9.19585-6.03596,10.62863-7.90933,3.17572-4.15028,5.5619-8.87864,7.92872-13.5153l2.3016-1.36408c1.46099-.13039,3.48236,1.66015,4.28953,2.83208,1.51913,2.20821,6.04833,13.22805,6.30563,15.88037.6168,6.32499-1.24949,12.76631-5.18478,17.72378-7.41765,9.34563-20.21747,4.42169-26.56892,15.55962,1.93858,2.5536,4.83584.81948,7.72254,1.08559,8.71824.80364,12.63062,6.48539,11.28773,15.00098-.80361,5.10723-8.03096,15.80809-8.01509,18.6807.02643,4.39701,7.28374,3.71148,8.08205,8.30059,1.64251,9.43023-20.41837,18.1379-26.14243,22.37983-2.30513,1.70946-12.38037,10.58281-5.895,11.81291,10.00828,1.8998,20.65278-5.15835,30.69984-3.33609,1.76585,1.16491,1.68478,9.66285,1.4821,11.89222-.28373,3.14047-4.51686,17.71671-2.29104,19.24466.39124.26788,8.15433,1.69712,9.29102,1.79933,1.26184.11456,7.60094.11632,8.67244-.13041,4.98036-1.14904,3.34842-5.61654,4.93628-7.69433,3.55287-4.64199,9.25049,5.52844,11.70013,6.2316,2.41086.69084,11.8781-3.23035,11.33178,2.67169-.34894,3.78021-8.59664,3.03121-10.72025,6.36026-1.93505,6.29858-6.08004,27.67742-15.39749,25.72123-1.46274-.30664-3.79607-2.33156-4.5433-3.63392-1.22836-2.13772-.79304-10.14399-.39124-12.83507.51814-3.47002,3.90004-7.40883,2.91666-11.51155" fill="#f69f17"/>
  <path d="M338.4043,124.37276c-3.66213-.46879-12.88616,1.2777-14.90226,4.30536-1.94387,2.92021-1.5632,13.02893-2.38798,17.30433-.57275,2.96073-3.23034,12.73286-5.22531,14.46171-6.72682,5.82803-16.05307-.02643-17.58454-7.69611-1.95971-9.82499-.16215-20.90478.71552-30.73329.39476-4.4076-2.106-13.70037,4.92924-12.49318,6.94534,1.18958,10.88945,10.12988,14.51455,10.92118,6.5224,1.42396,26.84737-6.03247,32.04447,1.70946,2.37564,3.53875-4.9874,16.80559-7.57978,20.33555-2.0954,2.85145-11.72831,12.81918-15.15781,11.7988-2.09013-1.30941-2.53424-3.08056-1.89628-5.33282,1.13846-4.03046,15.08381-22.0168,12.53018-24.581" fill="#f69f17"/>
  <path d="M349.4078,187.39408c2.80915-.48993,6.1012-.50579,8.25477,1.60725,4.27188,4.19258-1.90862,5.8809-2.40207,9.00374-.71197,4.50629,4.74772,11.46574-.39654,14.53749-13.45539,8.03623-20.02184-22.60719-5.45617-25.14848" fill="#f69f17"/>
  <path d="M405.54067,182.5549c3.71675-1.1138,33.71164,12.6835,19.0984,19.14068-12.72229,5.6236-10.20919-5.73638-14.57801-11.65254-1.33057-1.80287-9.23637-6.07475-4.52038-7.48815" fill="#f69f17"/>
  <path d="M189.49187,109.20296h-10.03648l5.05084-14.05108h.06521l4.92043,14.05108ZM210.53764,127.33382c.38772,0,.45291-.06344.45291-.58157v-2.46196c0-.38772-.0652-.45293-.45291-.58157l-1.55437-.19386c-1.55438-.25907-2.13772-.38949-4.33887-6.60522l-12.30283-33.60768c-.19386-.4529-.32428-.51811-.77719-.51811h-6.60522c-.51812,0-.64677.19386-.77719.51811l-10.61981,28.10391c-1.03449,2.71928-2.26635,6.21573-3.17219,8.09262-1.42396,3.36783-2.13596,3.69209-3.69033,4.01637l-.84239.19386c-.38772.06521-.45293.12865-.45293.51811v2.52542c0,.51814.06521.58157.45293.58157h14.56919c.38948,0,.45291-.06344.45291-.58157v-2.46196c0-.38772-.06344-.45293-.45291-.58157l-1.61782-.19386c-1.87865-.25907-2.59063-1.49095-2.59063-3.23916,0-1.87689.71198-4.20845,1.48917-6.28097l.25905-.71197h12.88618l1.2301,3.62688c.90584,2.52542,1.36053,4.0798,1.36053,5.05084,0,1.2301-.71376,1.42396-1.81344,1.55438l-1.9421.19386c-.38948.12865-.45467.19386-.45467.58157v2.46196c0,.51814.0652.58157.45467.58157h20.85015ZM152.77722,105.51265c0,12.17417-3.2374,17.28847-11.72127,17.28847h-4.66136v-34.70736h3.82073c8.67595,0,12.5619,4.46752,12.5619,17.41889M165.59819,104.99451c0-14.37533-9.3245-21.36827-23.63463-21.36827h-21.69254c-.38948,0-.45291.06344-.45291.51814v2.52542c0,.38772.06344.51811.45291.51811l2.58887.25907c1.68479.12865,1.81344.71199,1.81344,5.82627v24.34836c0,5.17951-.12865,5.76283-1.81344,5.89325l-2.58887.19386c-.38948.06521-.45291.19386-.45291.58157v2.46196c0,.51814.06344.58157.45291.58157h22.85744c12.5619,0,22.46973-7.89876,22.46973-22.33931" fill="#f69f17"/>
  <g>
    <path d="M500.22163,258.98616c-11.2297-7.82551-31.76327-4.56761-46.13901,1.79159l-1.03606.47328c-12.12636,5.52966-21.70559,9.89763-35.67689,21.13421l-.03442.02754c-2.4473,2.00844-6.06146,5.21643-9.79264,9.38304-1.01541.6712-2.08588,1.64702-3.36289,2.92575l-2.33027,2.59015c-8.46917,9.47253-30.96644,34.63222-40.71777,34.63222-.06196-.00172-.10154-.00344-.13252-.00172-.23578-.31495-.64883-1.46804-.64883-3.51434,0-6.20086,6.89788-18.32894,13.56858-30.05601,9.2574-16.27919,19.75223-34.73032,19.75223-49.42961,0-9.23847-5.35928-14.96777-14.36713-15.32747-4.48155-.12563-11.52572,2.1117-30.40022,19.89507-11.67889,11.00252-24.88777,25.15797-35.50134,36.53396-.53352.56966-1.07048,1.1462-1.60916,1.72447,1.31314-2.87067,2.4387-5.7052,3.29232-8.4795,1.92927-6.27142-.57654-14.10554-9.13693-16.959-1.72791-.56278-4.45402-.74348-7.62759,1.56441-11.79248,8.57416-25.99611,53.72185-25.99611,62.1721,0,4.39034,2.82248,9.16619,6.42459,10.87173,2.57121,1.21849,5.41607.87944,7.57768-.88805,2.12375-1.71586,7.31436-7.78248,17.91417-20.24444,11.46204-13.47736,27.16297-31.93537,41.18073-46.83775,12.38967-13.17102,19.7419-19.56119,24.01177-22.65732-2.53335,4.82748-6.47622,11.47237-9.89246,17.23264-10.43114,17.58545-22.2546,37.51494-22.75025,48.4056-.39584,9.29871,1.83806,16.76452,6.46246,21.59028,3.72774,3.89124,8.96655,5.94787,15.14848,5.94787,11.48785,0,23.50579-9.05949,33.71492-19.10512-.00344.02409-.00516.04819-.00861.07056-.34248,3.00491-.81232,7.12161,1.01713,11.6961,1.33207,3.16153,4.18726,5.71725,8.03892,7.19389,4.57621,1.75717,9.73413,1.75201,13.46531-.00172,5.27151-2.48172,9.79781-5.28011,13.90246-7.93738l.15833-.10498c1.41813-1.00852,2.72955-1.93099,3.9859-2.81388,6.26282-4.40583,11.21077-7.88575,21.1497-15.97801l1.5472-1.29765c.87428-.73488,1.81913-1.52999,2.77774-2.33027-2.10309,7.63103-3.89124,17.0657-2.44558,23.06004.0981.49049.18243.94829.26332,1.37854.6385,3.42484,1.19095,6.38329,4.83609,9.30215l.2048.15317c3.15981,2.2425,6.25249,3.1099,9.20405,3.1099,6.39361,0,12.11259-4.07711,16.34803-7.09751.81921-.58171,1.62465-1.15825,2.41976-1.69865l3.18734-2.16677-1.72275-3.44722c-1.28561-2.56949-3.13399-3.41452-4.45746-3.67267-3.17702-.61269-5.47631,1.42157-7.70676,3.39042-1.59023,1.40436-3.3474,2.95672-5.36444,3.72602.09121-.77963.27881-1.70554.55761-2.54024l.05507-.18243c1.75889-6.14923,2.99114-9.23331,5.23192-14.83353,1.12211-2.80355,2.46795-6.16816,4.18382-10.68758,2.74504-6.86001,6.20602-19.09307-1.42329-23.90851-2.88444-1.86731-10.58259-4.94795-19.81762,6.74815-1.80536,2.34576-5.3042,5.54859-8.68946,8.64816-1.23914,1.13416-2.48344,2.27348-3.65202,3.37321-3.65718,3.39559-8.75314,7.41763-16.55628,13.06948-5.87042,4.33699-12.22445,8.75314-19.17224,11.90262.30462-.64539.67464-1.38715,1.12211-2.24078l.27881-.5404c4.158-8.05441,5.41263-10.48622,11.30026-18.16544,7.21799-9.25396,25.92555-31.64796,43.65557-39.65418,8.82026-3.9205,16.13979-3.92566,18.08455-1.70726.32355.47672.73832,2.1771,1.01368,3.30265.76069,3.12022,1.70898,7.00114,4.80339,8.96999,3.60555,2.40083,7.7842,1.65735,10.15578-1.82601,3.53499-5.19062,2.46279-15.28272-3.82756-19.65757Z" fill="#f69f17"/>
    <path d="M283.30684,257.22899c.3769-4.52114-.82093-8.42959-3.46443-11.30198-2.64694-2.87584-6.46073-4.3955-11.03178-4.3955-10.25904,0-30.43894,20.54562-60.05609,51.88896-2.37071,2.50926-4.81543,5.09596-7.20766,7.61038,6.22065-11.28477,8.57243-16.50809,8.57243-19.58356,0-6.21635-3.49541-10.80633-9.90795-12.94212-1.72103-.54384-4.43681-.70218-7.61899,1.62981-12.29243,9.00958-28.15944,57.21382-28.15944,64.84829,0,3.73635,2.26917,7.79453,5.39456,9.6498,2.38018,1.41468,5.07875,1.49729,7.26445.30118,3.44205-1.72275,10.59292-9.60161,28.65596-30.02676,13.48511-15.2483,38.79969-43.87242,51.87089-54.62195-1.27012,2.33888-2.71234,4.88772-4.0272,7.20766-8.19811,14.479-19.42609,34.30695-20.58692,50.23505-1.25291,17.22748,3.45582,26.86351,15.64069,32.1746,1.58679.74004,3.60555,1.24947,5.55634,1.24947,1.63584,0,3.22262-.35797,4.4652-1.23914,1.53688-1.08941,2.34576-2.82421,2.16505-4.63817-.30978-3.12366-3.18218-4.60891-4.49532-5.20611-.50942-.55589-1.69521-2.73471-1.69521-5.90484,0-10.0921,6.3024-22.13241,12.9731-34.88177,7.14054-13.64602,14.52547-27.755,15.69232-42.05329Z" fill="#f69f17"/>
    <path d="M179.25442,260.68826v-1.82773l-1.29249-1.29077c-1.66509-1.66079-4.85674-2.38018-6.11825-2.38018-2.8199,0-7.17496,1.44394-12.58673,3.57113,25.14592-63.32346,36.47458-95.12202,36.65787-102.80726.22459-6.51667-2.55486-12.53854-7.0803-15.34037-3.39903-2.10568-7.4684-2.16075-11.16688-.15833l-.01205.00602c-8.89513,4.85244-42.13762,44.28116-89.31269,101.98977-3.71053,4.53835-6.89443,8.43303-9.35464,11.42418-13.18134-10.91131-25.75947-16.43753-37.43406-16.43753-9.8176,0-24.34479,5.8274-24.34479,18.3341,0,15.83001,20.71428,26.05979,36.28957,29.1215-16.90909,21.77443-28.38748,35.59256-34.23122,41.24269.74262-3.09785,2.54368-6.87722,4.17693-10.30723,2.3079-4.84469,4.48844-9.4209,4.48844-13.35001,0-5.70693-4.09777-13.96441-11.50765-13.96441-11.20475,0-16.42548,13.71142-16.42548,22.97915,0,3.61244,3.15378,28.98898,15.87905,28.98898,3.50745,0,10.80547,0,52.07139-53.97829.02668-.03614.05335-.07056.08003-.10498h2.47742c6.66296,0,13.40422-.44058,20.07836-1.31142,9.41402,13.59095,15.40319,28.16116,20.41912,42.01371-1.06101,4.72766-2.75106,9.24191-4.53232,14.00055-2.92747,7.82207-5.95475,15.91089-5.95475,25.02029,0,9.64636,4.30257,15.87819,10.96036,15.87819,10.8244,0,14.40327-16.37385,17.27825-29.5311.69271-3.17013,1.34756-6.163,1.96972-8.0372,7.26618-23.09446,14.77157-46.94961,22.89912-70.18348,21.38634-5.15792,25.62867-8.89943,25.62867-13.55997ZM103.51116,283.54177c7.19906-.70218,14.50654-1.52827,21.78906-2.84142-1.68747,5.35756-3.44722,10.68586-5.16652,15.89024-1.25549,3.80003-2.53335,7.66717-3.79056,11.57046-4.06248-9.00613-8.45713-17.10012-12.83198-24.61929ZM96.21573,271.79404c-.52922-.60752-1.06015-1.21677-1.59109-1.82773-2.25627-2.59187-4.56674-5.24741-6.95983-7.8083,13.43003-15.67511,26.65182-31.96635,39.46487-47.75505,12.47831-15.37738,25.37654-31.2702,38.42537-46.54173-7.20164,21.46551-22.1849,61.80552-30.45959,84.08765-2.30101,6.19225-4.30687,11.59284-5.83858,15.75084-11.20216,1.90862-21.85618,3.68988-33.04113,4.09432ZM71.62656,262.66744l-5.88075,7.15087c-11.08944-2.34404-29.34609-9.97851-29.34609-16.231,0-1.0722,0-4.33527,8.15939-4.33527,10.73145,0,20.2083,7.01318,27.06745,13.4154Z" fill="#f69f17"/>
  </g>
  <path d="M437.76724,256.2239l-10.03359-3.33879c6.2284-18.70756,9.38648-38.28769,9.38648-58.19825,0-101.51993-82.59208-184.11287-184.11115-184.11287S68.89611,93.16693,68.89611,194.68686c0,8.01999.52147,16.09676,1.54892,24.0066l-10.48622,1.36305c-1.08597-8.36075-1.6367-16.89532-1.6367-25.36966C58.32212,87.33609,145.65821,0,253.00898,0s194.68514,87.33609,194.68514,194.68686c0,21.04816-3.34051,41.75211-9.92688,61.53704Z" fill="#f69f17"/>
  <path d="M400.96532,151.86384c.31721-8.75702-10.32734-.8177-13.41315-.3612-9.37562,1.38693-5.76985-7.95695-7.7102-14.25376,1.112-3.0189,4.0357-4.48521,5.95142-6.70566,2.53066-2.93607,8.65655-8.71302,8.86447-12.35579.41767-7.2907-16.71569-9.91129-21.29599-12.37332-3.14754-1.69177-5.27462-6.34962-9.69282-4.47273-.59386.40885-2.77042,6.71975-2.72804,7.60619.06873,1.41339,3.79078,4.94688,4.41809,8.61428,2.23465,13.06421-6.77966,14.02637-13.85717,22.24944-5.99541,6.9665-10.38898,16.98535-2.46021,24.53517,6.59282,6.27745,21.41936.48823,23.58355,5.01206,1.66542,8.46982,1.80633,18.28946,3.37483,26.62181.91462,4.85695,3.41366,16.66632,6.05533,20.19098.84416,1.1262,2.17828,2.90617,3.68687,2.90434,5.16362-1.56495,4.41282-6.46945,4.25771-10.85774-.47931-13.57514-6.65457-27.9399-4.54674-41.95401,3.53165-3.58813,15.28293-8.13497,15.51205-14.40005ZM368.4591,153.95403c-1.34993.9428-8.68656.37712-9.34743-.60806-3.10871-4.63838,14.74716-15.24948,9.34743.60806Z" fill="#f69f17"/>
</svg>