<?xml version="1.0" encoding="UTF-8"?>
<svg id="Livello_1" xmlns="http://www.w3.org/2000/svg" version="1.1" viewBox="0 0 96 96">
  <!-- Generator: Adobe Illustrator 29.1.0, SVG Export Plug-In . SVG Version: 2.1.0 Build 142)  -->
  <defs>
    <style>
      .st0 {
        fill: #c91530;
      }

      .st1 {
        fill: #232f5e;
      }

      .st2 {
        fill: #fff;
      }
    </style>
  </defs>
  <path class="st2" d="M57.59,38.37V1.02c-.04-.07-.11-.08-.18-.1-.68-.19-1.69-.31-2.41-.42-4.99-.72-10.37-.68-15.33.22-.18.03-1.26.2-1.26.3v37.35H1.05c-.17.33-.22.8-.3,1.19-1,5.31-1,11.57,0,16.88.07.39.13.86.3,1.19h37.35v37.39c6.3,1.3,12.89,1.31,19.19,0v-37.39h37.46c1.26-6.33,1.26-12.93,0-19.26h-37.46ZM32.03,2.76c-8.55,2.98-16.19,8.48-21.74,15.61l21.74,10.87V2.76ZM64.04,2.76v26.48l21.67-10.8c.03-.2-1.03-1.42-1.24-1.66-2.45-2.89-5.49-5.64-8.58-7.85-3.63-2.6-7.64-4.67-11.85-6.17ZM65.74,32h14.34l10.79-5.39c.11-.18-.75-1.68-.9-1.95-.69-1.25-1.47-2.45-2.25-3.64l-21.98,10.98ZM2.79,32h13.17l-10.87-5.45c-.9,1.75-1.71,3.58-2.3,5.45ZM30.26,64.01h-14.34l-10.79,5.39c-.07.1.5,1.15.6,1.34.26.5,2.39,4.19,2.63,4.24l21.91-10.97ZM93.21,64.01h-13.17l10.86,5.45c.14-.03,1.13-2.26,1.26-2.57s1.16-2.77,1.05-2.88ZM32.03,66.77l-21.74,10.87c5.54,7.13,13.19,12.64,21.74,15.61v-26.48ZM64.04,93.25c8.49-3.02,16.19-8.46,21.67-15.61l-21.67-10.87v26.48Z"/>
  <path class="st0" d="M57.59,38.37h37.46c1.26,6.33,1.26,12.93,0,19.26h-37.46v37.39c-6.3,1.31-12.89,1.3-19.19,0v-37.39H1.05c-.17-.33-.22-.8-.3-1.19-1-5.31-1-11.57,0-16.88.07-.39.13-.86.3-1.19h37.35V1.02c0-.1,1.08-.26,1.26-.3,4.96-.9,10.34-.95,15.33-.22.72.1,1.74.23,2.41.42.07.02.14.03.18.1v37.35Z"/>
  <path class="st1" d="M32.03,66.77v26.48c-8.55-2.97-16.2-8.48-21.74-15.61l21.74-10.87Z"/>
  <path class="st1" d="M32.03,2.76v26.48l-21.74-10.87c5.55-7.13,13.19-12.63,21.74-15.61Z"/>
  <path class="st1" d="M64.04,2.76c4.21,1.51,8.21,3.58,11.85,6.17,3.09,2.2,6.13,4.95,8.58,7.85.21.24,1.27,1.46,1.24,1.66l-21.67,10.8V2.76Z"/>
  <path class="st1" d="M64.04,93.25v-26.48l21.67,10.87c-5.48,7.15-13.17,12.59-21.67,15.61Z"/>
  <path class="st0" d="M65.74,32l21.98-10.98c.79,1.19,1.57,2.39,2.25,3.64.15.27,1.01,1.77.9,1.95l-10.79,5.39h-14.34Z"/>
  <path class="st0" d="M30.26,64.01l-21.91,10.97c-.25-.05-2.37-3.74-2.63-4.24-.1-.19-.66-1.25-.6-1.34l10.79-5.39h14.34Z"/>
  <path class="st0" d="M93.21,64.01c.11.11-.91,2.56-1.05,2.88s-1.12,2.53-1.26,2.57l-10.86-5.45h13.17Z"/>
  <path class="st0" d="M2.79,32c.59-1.88,1.4-3.7,2.3-5.45l10.87,5.45H2.79Z"/>
</svg>